<?xml version="1.0" encoding="utf-8"?>
<!-- Generator: Adobe Illustrator 23.0.0, SVG Export Plug-In . SVG Version: 6.00 Build 0)  -->
<svg version="1.1" id="Layer_1" xmlns="http://www.w3.org/2000/svg" xmlns:xlink="http://www.w3.org/1999/xlink" x="0px" y="0px"
	 viewBox="0 0 1365.98 768.02" style="enable-background:new 0 0 1365.98 768.02;" xml:space="preserve">
<style type="text/css">
	.st0{fill:url(#SVGID_1_);}
	.st1{fill:url(#SVGID_2_);}
	.st2{fill:#FFFFFF;}
	.st3{font-family:'Impact';}
	.st4{font-size:37.8758px;}
</style>
<g>
	<g>
		<linearGradient id="SVGID_1_" gradientUnits="userSpaceOnUse" x1="387.9888" y1="262.9753" x2="598.5" y2="262.9753">
			<stop  offset="0.219" style="stop-color:#FFFFFF"/>
			<stop  offset="0.8274" style="stop-color:#000000"/>
			<stop  offset="0.948" style="stop-color:#332F30"/>
		</linearGradient>
		<path class="st0" d="M387.99,204.5H588c5.79,0,10.5,4.71,10.5,10.5v106.45L387.99,204.5z"/>
		<path d="M588,206c4.96,0,9,4.04,9,9v103.9L393.78,206H588 M588,203H382.2L600,324V215C600,208.4,594.6,203,588,203L588,203z"/>
	</g>
	<g>
		<radialGradient id="SVGID_2_" cx="422.3323" cy="412.6753" r="105.2612" gradientUnits="userSpaceOnUse">
			<stop  offset="0" style="stop-color:#FFFFFF"/>
			<stop  offset="0.0851" style="stop-color:#FFEDD8"/>
			<stop  offset="0.2082" style="stop-color:#FFD5A7"/>
			<stop  offset="0.3345" style="stop-color:#FFC17D"/>
			<stop  offset="0.462" style="stop-color:#FFB05B"/>
			<stop  offset="0.591" style="stop-color:#FFA340"/>
			<stop  offset="0.7222" style="stop-color:#FF9A2D"/>
			<stop  offset="0.8568" style="stop-color:#FF9522"/>
			<stop  offset="1" style="stop-color:#FF931E"/>
		</radialGradient>
		<path class="st1" d="M303,485.5c-5.79,0-10.5-4.71-10.5-10.5V339.85L552.16,485.5H303z"/>
		<path d="M294,342.41L546.42,484H303c-4.96,0-9-4.04-9-9V342.41 M291,337.29V475c0,6.6,5.4,12,12,12h254.9L291,337.29L291,337.29z"
			/>
	</g>
	<g>
		<path class="st2" d="M292.5,247.65V215c0-5.79,4.71-10.5,10.5-10.5h78.81L598.5,324.88v94.57L292.5,247.65z"/>
		<path d="M381.42,206L597,325.77v91.12L294,246.77V215c0-4.96,4.04-9,9-9H381.42 M382.2,203H303c-6.6,0-12,5.4-12,12v33.53
			l309,173.49V324L382.2,203L382.2,203z"/>
	</g>
</g>
<text transform="matrix(0.6822 -0.7312 0.7312 0.6822 319.1778 478.6902)" class="st3 st4">BROWSE PORTFOLIO</text>
<g>
	<path d="M452.62,351.29c-0.18-2.5,1.29-4.02,2.89-5.46c1.07-0.96,2.23-1.84,3.19-2.89c1.24-1.36,1.18-2.6-0.1-3.92
		c-1.31-1.35-2.73-2.59-4.08-3.89c-1.34-1.28-1.24-3.03,0.3-3.78c0.54-0.26,1.53-0.38,1.9-0.07c2.62,2.2,5.47,4.23,7.01,7.45
		c0.64,1.35,0.62,2.71,0.08,4.07c-0.92,2.33-2.35,4.25-4.44,5.68c-0.81,0.55-1.56,1.2-2.34,1.81c0.01,0.14,0.02,0.29,0.02,0.43
		c0.63,0.2,1.25,0.5,1.9,0.57c5.99,0.63,11.54,2.33,15.91,6.74c2.73,2.76,4.27,6.13,4.3,10.01c0.08,10.37,0.14,20.75,0.01,31.12
		c-0.15,11.27-8.08,20.68-19.09,22.97c-13.28,2.77-26.57-6.68-28.28-20.14c-0.17-1.31-0.24-2.63-0.24-3.95
		c-0.02-9.41,0.07-18.83-0.04-28.24c-0.07-6.51,2.89-11.15,8.27-14.45c3.5-2.15,7.34-3.31,11.4-3.83
		C451.63,351.46,452.06,351.38,452.62,351.29z M436.1,384.86c0,5.04-0.18,9.88,0.04,14.71c0.46,9.97,7.74,17.46,17.67,18.43
		c10.51,1.03,20.37-7.41,20.81-17.93c0.17-4,0.08-8.01,0.11-12.01c0.01-0.99,0-1.98,0-3.14C461.79,389.19,449,388.46,436.1,384.86z
		 M458.02,355.74c0,9.27,0,18.36,0,27.52c5.59-0.14,10.93-1.01,16.07-2.93c0.32-0.12,0.61-0.78,0.61-1.2
		c0.05-3.24,0.03-6.49,0.03-9.73c0-2.32-0.38-4.55-1.72-6.51C469.41,357.63,463.93,356.4,458.02,355.74z M453.37,355.83
		c-4.57,0.48-8.85,1.58-12.55,4.34c-2.99,2.23-4.77,5.12-4.77,8.95c0,3.36,0.02,6.72-0.02,10.09c-0.01,0.7,0.26,1,0.9,1.15
		c1.09,0.26,2.15,0.61,3.24,0.87c4.32,1.05,8.69,1.75,13.2,1.97C453.37,374.08,453.37,365.02,453.37,355.83z"/>
	<path class="st2" d="M436.1,384.86c12.9,3.6,25.69,4.33,38.63,0.08c0,1.16,0.01,2.15,0,3.14c-0.03,4,0.06,8.01-0.11,12.01
		c-0.44,10.51-10.3,18.96-20.81,17.93c-9.93-0.98-17.22-8.46-17.67-18.43C435.92,394.74,436.1,389.89,436.1,384.86z"/>
	<path class="st2" d="M458.02,355.74c5.91,0.66,11.39,1.89,14.99,7.15c1.34,1.96,1.72,4.19,1.72,6.51c0.01,3.24,0.02,6.49-0.03,9.73
		c-0.01,0.41-0.29,1.08-0.61,1.2c-5.14,1.92-10.48,2.8-16.07,2.93C458.02,374.1,458.02,365.01,458.02,355.74z"/>
	<path class="st2" d="M453.37,355.83c0,9.19,0,18.26,0,27.38c-4.52-0.23-8.89-0.93-13.2-1.97c-1.09-0.26-2.15-0.61-3.24-0.87
		c-0.64-0.15-0.91-0.45-0.9-1.15c0.04-3.36,0.02-6.72,0.02-10.09c0-3.83,1.78-6.73,4.77-8.95
		C444.52,357.41,448.8,356.31,453.37,355.83z M451.43,381.09c0-7.89,0-15.35,0-23.08c-2.01,0.57-3.91,1.03-5.75,1.66
		c-3.83,1.31-6.3,3.93-7.39,7.87c-0.95,3.42-0.8,6.9-0.58,10.37c0.02,0.34,0.56,0.84,0.94,0.94c2.17,0.56,4.35,1.09,6.55,1.48
		C447.23,380.68,449.28,380.84,451.43,381.09z"/>
	<path d="M451.43,381.09c-2.15-0.26-4.21-0.41-6.23-0.77c-2.2-0.39-4.38-0.92-6.55-1.48c-0.38-0.1-0.92-0.6-0.94-0.94
		c-0.23-3.48-0.37-6.95,0.58-10.37c1.09-3.93,3.56-6.55,7.39-7.87c1.84-0.63,3.73-1.08,5.75-1.66
		C451.43,365.74,451.43,373.21,451.43,381.09z"/>
</g>
</svg>
